<svg width="527" height="318" viewBox="0 0 527 318" fill="none" xmlns="http://www.w3.org/2000/svg">
<g clip-path="url(#clip0_82_81)">
<path d="M79.3415 86.8375C80.2203 77.9099 82.6481 69.1791 86.5278 60.9935C87.6093 58.7158 88.7996 56.4883 90.0988 54.3108C90.1635 54.1969 90.1789 54.0637 90.1417 53.9394C90.1045 53.815 90.0176 53.7091 89.8992 53.644C89.7809 53.5788 89.6404 53.5594 89.5072 53.5899C89.3741 53.6204 89.2587 53.6985 89.1852 53.8076C84.4613 61.7388 81.1518 70.3484 79.3891 79.2919C78.8991 81.7892 78.5308 84.3044 78.2842 86.8375C78.2216 87.4762 79.2796 87.4722 79.3415 86.8375V86.8375Z" fill="black"/>
<path d="M92.6603 55.9097C96.3596 55.9097 99.3585 53.0817 99.3585 49.5933C99.3585 46.1048 96.3596 43.2769 92.6603 43.2769C88.961 43.2769 85.9622 46.1048 85.9622 49.5933C85.9622 53.0817 88.961 55.9097 92.6603 55.9097Z" fill="#365B6D"/>
<path d="M80.0267 87.0052C80.5971 81.2135 82.1722 75.5495 84.6893 70.2393C85.3908 68.7614 86.1628 67.3161 87.0053 65.9035C87.0445 65.8299 87.0526 65.745 87.0278 65.666C87.003 65.587 86.9473 65.5199 86.8719 65.4782C86.7965 65.4366 86.7071 65.4236 86.6219 65.4419C86.5367 65.4602 86.4621 65.5085 86.4133 65.5768C83.3487 70.722 81.2016 76.3073 80.058 82.1092C79.7402 83.7298 79.5012 85.3618 79.3408 87.0052C79.3003 87.4192 79.9862 87.4165 80.0267 87.0052Z" fill="black"/>
<path d="M88.6675 66.9415C91.0676 66.9415 93.0134 65.1067 93.0134 62.8433C93.0134 60.58 91.0676 58.7451 88.6675 58.7451C86.2673 58.7451 84.3215 60.58 84.3215 62.8433C84.3215 65.1067 86.2673 66.9415 88.6675 66.9415Z" fill="#365B6D"/>
<path d="M79.1616 86.618C75.8336 81.7207 73.3811 76.3411 71.9021 70.6942C71.4913 69.1223 71.1573 67.5351 70.9002 65.9324C70.8838 65.851 70.8349 65.7786 70.7637 65.7302C70.6924 65.6817 70.6041 65.6608 70.5171 65.6718C70.43 65.6828 70.3506 65.7248 70.2954 65.7893C70.2402 65.8537 70.2132 65.9357 70.22 66.0183C71.1596 71.853 73.1098 77.5023 75.9925 82.7405C76.7989 84.2023 77.6748 85.6275 78.6202 87.0159C78.8585 87.3661 79.3979 86.9663 79.1609 86.618H79.1616Z" fill="black"/>
<path d="M70.2143 66.6537C72.6145 66.6537 74.5603 64.8189 74.5603 62.5555C74.5603 60.2921 72.6145 58.4573 70.2143 58.4573C67.8141 58.4573 65.8684 60.2921 65.8684 62.5555C65.8684 64.8189 67.8141 66.6537 70.2143 66.6537Z" fill="#365B6D"/>
<path d="M65.8206 90.2439V82.1924C65.8215 81.3919 66.1591 80.6244 66.7594 80.0584C67.3596 79.4924 68.1735 79.174 69.0224 79.1731H88.9447C89.7936 79.174 90.6075 79.4924 91.2077 80.0584C91.808 80.6244 92.1456 81.3919 92.1465 82.1924V90.2439C92.1456 91.0444 91.808 91.8118 91.2077 92.3779C90.6075 92.9439 89.7936 93.2623 88.9447 93.2632H69.0224C68.1735 93.2623 67.3596 92.9439 66.7594 92.3779C66.1591 91.8118 65.8215 91.0444 65.8206 90.2439ZM88.2332 38.9156H79.6951C78.8462 38.9147 78.0323 38.5963 77.4321 38.0303C76.8318 37.4642 76.4942 36.6968 76.4933 35.8963V3.01931C76.4942 2.21881 76.8318 1.45135 77.4321 0.885312C78.0323 0.319273 78.8462 0.000887964 79.6951 0H88.2332C89.0821 0.000887964 89.8959 0.319273 90.4962 0.885312C91.0964 1.45135 91.4341 2.21881 91.435 3.01931V35.8963C91.4341 36.6968 91.0964 37.4642 90.4962 38.0303C89.8959 38.5963 89.0821 38.9147 88.2332 38.9156V38.9156Z" fill="#D2D2D2"/>
<path d="M76.8484 6.37415H91.0787V9.05798H76.8484V6.37415ZM76.8484 27.1739H91.0787V29.8577H76.8484V27.1739Z" fill="#365B6D"/>
<path d="M109.579 38.9156H101.041C100.192 38.9147 99.3779 38.5963 98.7777 38.0303C98.1774 37.4642 97.8398 36.6968 97.8389 35.8963V3.01931C97.8398 2.21881 98.1774 1.45135 98.7777 0.885312C99.3779 0.319273 100.192 0.000887964 101.041 0H109.579C110.428 0.000887964 111.242 0.319273 111.842 0.885312C112.442 1.45135 112.78 2.21881 112.781 3.01931V35.8963C112.78 36.6968 112.442 37.4642 111.842 38.0303C111.242 38.5963 110.428 38.9147 109.579 38.9156V38.9156Z" fill="#D2D2D2"/>
<path d="M98.1938 6.37415H112.424V9.05798H98.1938V6.37415ZM98.1938 27.1739H112.424V29.8577H98.1938V27.1739Z" fill="#365B6D"/>
<path d="M130.924 38.9156H122.386C121.537 38.9147 120.723 38.5963 120.123 38.0303C119.523 37.4642 119.185 36.6968 119.184 35.8963V3.01931C119.185 2.21881 119.523 1.45135 120.123 0.885312C120.723 0.319273 121.537 0.000887964 122.386 0H130.924C131.773 0.000887964 132.587 0.319273 133.187 0.885312C133.787 1.45135 134.125 2.21881 134.126 3.01931V35.8963C134.125 36.6968 133.787 37.4642 133.187 38.0303C132.587 38.5963 131.773 38.9147 130.924 38.9156V38.9156Z" fill="#D2D2D2"/>
<path d="M119.539 6.37415H133.77V9.05798H119.539V6.37415ZM119.539 27.1739H133.77V29.8577H119.539V27.1739Z" fill="#365B6D"/>
<path d="M142.308 93.2632H133.77C132.921 93.2623 132.107 92.944 131.507 92.3779C130.907 91.8119 130.569 91.0444 130.568 90.2439V57.367C130.569 56.5665 130.907 55.799 131.507 55.233C132.107 54.6669 132.921 54.3485 133.77 54.3477H142.308C143.157 54.3485 143.971 54.6669 144.571 55.233C145.172 55.799 145.509 56.5665 145.51 57.367V90.2439C145.509 91.0444 145.172 91.8119 144.571 92.3779C143.971 92.944 143.157 93.2623 142.308 93.2632V93.2632Z" fill="#D2D2D2"/>
<path d="M130.923 60.7217H145.154V63.4055H130.923V60.7217ZM130.923 81.5214H145.154V84.2052H130.923V81.5214Z" fill="#365B6D"/>
<path d="M163.654 93.2632H155.116C154.267 93.2623 153.453 92.944 152.853 92.3779C152.252 91.8119 151.915 91.0444 151.914 90.2439V57.367C151.915 56.5665 152.252 55.799 152.853 55.233C153.453 54.6669 154.267 54.3485 155.116 54.3477H163.654C164.503 54.3485 165.317 54.6669 165.917 55.233C166.517 55.799 166.855 56.5665 166.856 57.367V90.2439C166.855 91.0444 166.517 91.8119 165.917 92.3779C165.317 92.944 164.503 93.2623 163.654 93.2632V93.2632Z" fill="#D2D2D2"/>
<path d="M152.269 60.7217H166.499V63.4055H152.269V60.7217ZM152.269 81.5214H166.499V84.2052H152.269V81.5214Z" fill="#365B6D"/>
<path d="M184.999 93.2632H176.461C175.612 93.2623 174.798 92.944 174.198 92.3779C173.598 91.8119 173.26 91.0444 173.259 90.2439V57.367C173.26 56.5665 173.598 55.799 174.198 55.233C174.798 54.6669 175.612 54.3485 176.461 54.3477H184.999C185.848 54.3485 186.662 54.6669 187.262 55.233C187.862 55.799 188.2 56.5665 188.201 57.367V90.2439C188.2 91.0444 187.862 91.8119 187.262 92.3779C186.662 92.944 185.848 93.2623 184.999 93.2632V93.2632Z" fill="#D2D2D2"/>
<path d="M173.614 60.7217H187.845V63.4055H173.614V60.7217ZM173.614 81.5214H187.845V84.2052H173.614V81.5214Z" fill="#365B6D"/>
<path d="M86.0989 147.611H77.5607C76.7118 147.61 75.898 147.291 75.2977 146.725C74.6974 146.159 74.3598 145.392 74.3589 144.591V111.715C74.3598 110.914 74.6974 110.147 75.2977 109.581C75.898 109.014 76.7118 108.696 77.5607 108.695H86.0989C86.9477 108.696 87.7616 109.014 88.3618 109.581C88.9621 110.147 89.2997 110.914 89.3007 111.715V144.591C89.2997 145.392 88.9621 146.159 88.3618 146.725C87.7616 147.291 86.9477 147.61 86.0989 147.611V147.611Z" fill="#D2D2D2"/>
<path d="M74.7139 115.069H88.9441V117.753H74.7139V115.069ZM74.7139 135.869H88.9441V138.553H74.7139V135.869Z" fill="#365B6D"/>
<path d="M107.444 147.611H98.9059C98.057 147.61 97.2432 147.291 96.6429 146.725C96.0427 146.159 95.705 145.392 95.7041 144.591V111.715C95.705 110.914 96.0427 110.147 96.6429 109.581C97.2432 109.014 98.057 108.696 98.9059 108.695H107.444C108.293 108.696 109.107 109.014 109.707 109.581C110.307 110.147 110.645 110.914 110.646 111.715V144.591C110.645 145.392 110.307 146.159 109.707 146.725C109.107 147.291 108.293 147.61 107.444 147.611V147.611Z" fill="#D2D2D2"/>
<path d="M96.0593 115.069H110.29V117.753H96.0593V115.069ZM96.0593 135.869H110.29V138.553H96.0593V135.869Z" fill="#365B6D"/>
<path d="M128.79 147.611H120.251C119.402 147.61 118.589 147.291 117.988 146.725C117.388 146.159 117.051 145.392 117.05 144.591V111.715C117.051 110.914 117.388 110.147 117.988 109.581C118.589 109.014 119.402 108.696 120.251 108.695H128.79C129.638 108.696 130.452 109.014 131.053 109.581C131.653 110.147 131.99 110.914 131.991 111.715V144.591C131.99 145.392 131.653 146.159 131.053 146.725C130.452 147.291 129.638 147.61 128.79 147.611V147.611Z" fill="#D2D2D2"/>
<path d="M117.405 115.069H131.635V117.753H117.405V115.069ZM117.405 135.869H131.635V138.553H117.405V135.869Z" fill="#365B6D"/>
<path d="M152.27 38.9156H143.731C142.882 38.9147 142.069 38.5963 141.468 38.0303C140.868 37.4642 140.53 36.6968 140.53 35.8963V3.01931C140.53 2.21881 140.868 1.45135 141.468 0.885312C142.069 0.319273 142.882 0.000887964 143.731 0H152.27C153.118 0.000887964 153.932 0.319273 154.532 0.885312C155.133 1.45135 155.47 2.21881 155.471 3.01931V35.8963C155.47 36.6968 155.133 37.4642 154.532 38.0303C153.932 38.5963 153.118 38.9147 152.27 38.9156V38.9156Z" fill="#D2D2D2"/>
<path d="M140.885 6.37415H155.115V9.05798H140.885V6.37415ZM140.885 27.1739H155.115V29.8577H140.885V27.1739Z" fill="#365B6D"/>
<path d="M173.615 38.9156H165.077C164.228 38.9147 163.414 38.5963 162.814 38.0303C162.214 37.4642 161.876 36.6968 161.875 35.8963V3.01931C161.876 2.21881 162.214 1.45135 162.814 0.885312C163.414 0.319273 164.228 0.000887964 165.077 0H173.615C174.464 0.000887964 175.278 0.319273 175.878 0.885312C176.478 1.45135 176.816 2.21881 176.817 3.01931V35.8963C176.816 36.6968 176.478 37.4642 175.878 38.0303C175.278 38.5963 174.464 38.9147 173.615 38.9156V38.9156Z" fill="#D2D2D2"/>
<path d="M162.23 6.37415H176.46V9.05798H162.23V6.37415ZM162.23 27.1739H176.46V29.8577H162.23V27.1739Z" fill="#365B6D"/>
<path d="M194.96 38.9156H186.422C185.573 38.9147 184.76 38.5963 184.159 38.0303C183.559 37.4642 183.221 36.6968 183.22 35.8963V3.01931C183.221 2.21881 183.559 1.45135 184.159 0.885312C184.76 0.319273 185.573 0.000887964 186.422 0H194.96C195.809 0.000887964 196.623 0.319273 197.223 0.885312C197.824 1.45135 198.161 2.21881 198.162 3.01931V35.8963C198.161 36.6968 197.824 37.4642 197.223 38.0303C196.623 38.5963 195.809 38.9147 194.96 38.9156V38.9156Z" fill="#D2D2D2"/>
<path d="M183.575 6.37415H197.806V9.05798H183.575V6.37415ZM183.575 27.1739H197.806V29.8577H183.575V27.1739Z" fill="#365B6D"/>
<path d="M216.306 38.9156H207.767C206.919 38.9147 206.105 38.5963 205.505 38.0303C204.904 37.4642 204.567 36.6968 204.566 35.8963V3.01931C204.567 2.21881 204.904 1.45135 205.505 0.885312C206.105 0.319273 206.919 0.000887964 207.767 0H216.306C217.155 0.000887964 217.968 0.319273 218.569 0.885312C219.169 1.45135 219.507 2.21881 219.507 3.01931V35.8963C219.507 36.6968 219.169 37.4642 218.569 38.0303C217.968 38.5963 217.155 38.9147 216.306 38.9156V38.9156Z" fill="#D2D2D2"/>
<path d="M204.921 6.37415H219.151V9.05798H204.921V6.37415ZM204.921 27.1739H219.151V29.8577H204.921V27.1739Z" fill="#365B6D"/>
<path d="M248.281 39.922H45.4996C45.3109 39.922 45.1299 39.8513 44.9965 39.7255C44.8631 39.5996 44.7881 39.429 44.7881 39.251C44.7881 39.0731 44.8631 38.9024 44.9965 38.7766C45.1299 38.6508 45.3109 38.5801 45.4996 38.5801H248.281C248.47 38.5801 248.651 38.6508 248.784 38.7766C248.917 38.9024 248.992 39.0731 248.992 39.251C248.992 39.429 248.917 39.5996 248.784 39.7255C248.651 39.8513 248.47 39.922 248.281 39.922ZM248.281 94.2696H45.4996C45.3109 94.2696 45.1299 94.1989 44.9965 94.0731C44.8631 93.9473 44.7881 93.7766 44.7881 93.5987C44.7881 93.4207 44.8631 93.25 44.9965 93.1242C45.1299 92.9984 45.3109 92.9277 45.4996 92.9277H248.281C248.47 92.9277 248.651 92.9984 248.784 93.1242C248.917 93.25 248.992 93.4207 248.992 93.5987C248.992 93.7766 248.917 93.9473 248.784 94.0731C248.651 94.1989 248.47 94.2696 248.281 94.2696ZM248.281 148.617H45.4996C45.3109 148.617 45.1299 148.547 44.9965 148.421C44.8631 148.295 44.7881 148.124 44.7881 147.946C44.7881 147.768 44.8631 147.598 44.9965 147.472C45.1299 147.346 45.3109 147.275 45.4996 147.275H248.281C248.47 147.275 248.651 147.346 248.784 147.472C248.917 147.598 248.992 147.768 248.992 147.946C248.992 148.124 248.917 148.295 248.784 148.421C248.651 148.547 248.47 148.617 248.281 148.617ZM236.272 253.946C236.272 248.758 215.566 244.552 190.024 244.552C164.481 244.552 143.775 248.758 143.775 253.946C143.775 257.27 152.288 260.19 165.121 261.859V313.325C165.121 314.482 165.608 315.591 166.475 316.409C167.343 317.227 168.519 317.687 169.745 317.687C170.972 317.687 172.148 317.227 173.016 316.409C173.883 315.591 174.37 314.482 174.37 313.325V262.786C179.26 263.143 184.529 263.339 190.024 263.339C195.519 263.339 200.787 263.143 205.677 262.786V313.325C205.677 314.482 206.164 315.591 207.031 316.409C207.899 317.227 209.075 317.687 210.302 317.687C211.528 317.687 212.705 317.227 213.572 316.409C214.439 315.591 214.927 314.482 214.927 313.325V261.859C227.759 260.19 236.272 257.27 236.272 253.946Z" fill="#CCCCCC"/>
<path d="M227.373 309.249H236.096L240.246 277.52H227.372L227.373 309.249Z" fill="#A0616A"/>
<path d="M252.919 316.886L225.504 316.888L225.503 306.899L242.326 306.898C245.136 306.898 247.83 307.95 249.816 309.823C251.803 311.697 252.919 314.237 252.919 316.886V316.886Z" fill="#2F2E41"/>
<path d="M240.99 304.658L249.313 302.195L243.2 270.75L230.916 274.385L240.99 304.658V304.658Z" fill="#A0616A"/>
<path d="M267.789 304.733L241.632 312.474L238.46 302.944L254.511 298.194C257.191 297.401 260.096 297.644 262.586 298.871C265.076 300.097 266.947 302.206 267.789 304.734L267.789 304.733Z" fill="#2F2E41"/>
<path d="M235.154 290.054L219.197 250.555C215.617 251.347 185.595 257.612 175.54 247.516C172.094 244.056 171.421 239.042 173.542 232.615L179.41 225.661L179.592 225.67C181.812 225.781 233.978 228.538 237.553 243.377C240.568 255.886 246.075 279.209 247.691 286.059C247.854 286.769 247.742 287.511 247.375 288.149C247.007 288.787 246.409 289.28 245.688 289.537L239.271 291.806C238.913 291.933 238.534 291.998 238.152 291.998C237.502 291.998 236.868 291.812 236.333 291.465C235.798 291.118 235.387 290.626 235.154 290.054V290.054Z" fill="#2F2E41"/>
<path d="M225.905 294.751L209.948 255.251C206.367 256.044 176.345 262.308 166.29 252.213C162.844 248.752 162.172 243.739 164.292 237.312L170.16 230.358L170.343 230.367C172.562 230.478 224.728 233.235 228.303 248.073C231.319 260.583 236.825 283.905 238.441 290.756C238.605 291.466 238.493 292.207 238.125 292.846C237.758 293.484 237.159 293.977 236.439 294.234L230.021 296.503C229.663 296.63 229.284 296.695 228.902 296.695C228.253 296.695 227.618 296.509 227.083 296.162C226.548 295.815 226.137 295.323 225.905 294.751V294.751Z" fill="#2F2E41"/>
<path d="M247.47 200.064C247.234 200.361 247.023 200.675 246.84 201.004L211.748 204.491L206.696 197.96L195.248 203.86L205.169 219.709L248.207 209.361C249.293 210.359 250.675 211.022 252.171 211.262C253.666 211.501 255.203 211.305 256.577 210.701C257.951 210.096 259.098 209.112 259.864 207.878C260.631 206.644 260.981 205.219 260.867 203.793C260.754 202.367 260.183 201.007 259.231 199.894C258.278 198.782 256.989 197.969 255.534 197.564C254.08 197.159 252.529 197.182 251.089 197.628C249.648 198.075 248.386 198.924 247.469 200.064H247.47Z" fill="#A0616A"/>
<path d="M164.066 239.397C163.586 239.071 163.211 238.626 162.983 238.111C162.755 237.596 162.682 237.031 162.773 236.48C164.752 224.172 162.474 206.542 160.215 193.919C159.752 191.358 159.932 188.73 160.74 186.246C161.548 183.762 162.962 181.491 164.868 179.615C166.774 177.739 169.12 176.31 171.717 175.443C174.314 174.576 177.091 174.294 179.824 174.621C182.202 174.917 184.558 175.355 186.877 175.933C190.729 176.847 194.137 178.971 196.54 181.955C198.943 184.938 200.197 188.604 200.098 192.349C199.76 204.53 202.383 219.728 203.526 225.696C203.604 226.106 203.592 226.527 203.49 226.932C203.388 227.338 203.198 227.719 202.933 228.052C202.673 228.382 202.343 228.657 201.964 228.859C201.584 229.061 201.164 229.186 200.731 229.226C188.06 230.446 174.396 236.273 167.379 239.637C166.928 239.857 166.428 239.972 165.92 239.973C165.253 239.971 164.604 239.769 164.066 239.397V239.397Z" fill="#365B6D"/>
<path d="M198.27 207.654C197.878 207.509 197.521 207.292 197.218 207.015C196.916 206.739 196.675 206.409 196.509 206.045L189.443 190.651C189.007 189.72 188.771 188.717 188.748 187.699C188.725 186.681 188.916 185.669 189.31 184.721C189.703 183.773 190.292 182.908 191.042 182.176C191.791 181.443 192.687 180.858 193.678 180.454C194.669 180.049 195.735 179.834 196.814 179.82C197.894 179.805 198.965 179.993 199.968 180.371C200.97 180.749 201.883 181.31 202.654 182.023C203.425 182.735 204.04 183.584 204.461 184.522L211.528 199.915C211.864 200.65 211.877 201.481 211.565 202.225C211.253 202.969 210.64 203.567 209.861 203.885L200.72 207.617C200.334 207.775 199.919 207.86 199.499 207.867C199.078 207.873 198.66 207.801 198.27 207.654V207.654Z" fill="#365B6D"/>
<path d="M214.029 198.722C213.793 199.019 213.582 199.333 213.398 199.662L178.307 203.149L173.255 196.618L161.807 202.518L171.728 218.367L214.766 208.019C215.852 209.018 217.234 209.68 218.729 209.92C220.224 210.159 221.761 209.963 223.136 209.359C224.51 208.754 225.657 207.77 226.423 206.536C227.19 205.302 227.539 203.877 227.426 202.451C227.313 201.025 226.742 199.665 225.79 198.553C224.837 197.44 223.548 196.627 222.093 196.222C220.639 195.817 219.088 195.84 217.647 196.286C216.207 196.733 214.944 197.582 214.028 198.722H214.029Z" fill="#A0616A"/>
<path d="M164.828 208.324C164.437 208.179 164.079 207.963 163.777 207.686C163.475 207.41 163.234 207.08 163.068 206.716L156.002 191.322C155.566 190.391 155.33 189.388 155.307 188.37C155.284 187.352 155.475 186.34 155.868 185.392C156.262 184.444 156.851 183.579 157.6 182.847C158.35 182.114 159.246 181.529 160.237 181.125C161.228 180.72 162.294 180.505 163.373 180.491C164.452 180.476 165.524 180.664 166.526 181.042C167.529 181.42 168.442 181.981 169.213 182.694C169.984 183.406 170.598 184.255 171.02 185.193L178.087 200.586C178.423 201.321 178.436 202.152 178.124 202.896C177.811 203.64 177.199 204.237 176.42 204.556L167.279 208.288C166.893 208.446 166.478 208.531 166.058 208.538C165.637 208.544 165.219 208.471 164.828 208.324V208.324Z" fill="#365B6D"/>
<path d="M178.523 169.385C188.174 169.385 195.998 162.007 195.998 152.905C195.998 143.804 188.174 136.426 178.523 136.426C168.871 136.426 161.047 143.804 161.047 152.905C161.047 162.007 168.871 169.385 178.523 169.385Z" fill="#A0616A"/>
<path d="M166.029 164.215C165.954 164.008 165.93 163.788 165.959 163.571C165.989 163.354 166.07 163.147 166.197 162.964C166.325 162.782 166.495 162.629 166.695 162.518C166.894 162.407 167.118 162.34 167.349 162.324C167.823 162.348 168.286 162.462 168.711 162.66C169.136 162.858 169.514 163.135 169.823 163.474C170.455 164.162 171.192 164.758 172.008 165.244C172.854 165.646 174.001 165.588 174.482 164.822C174.934 164.103 174.624 163.139 174.351 162.304C173.653 160.178 173.263 157.973 173.191 155.749C173.112 153.266 173.483 150.675 174.941 148.739C176.822 146.239 180.185 145.29 183.369 145.359C186.553 145.428 189.684 146.355 192.837 146.94C193.926 147.142 195.205 147.246 195.934 146.451C196.708 145.605 196.423 144.235 196.094 143.093C195.24 140.13 194.333 137.065 192.348 134.671C190.201 132.184 187.135 130.556 183.767 130.116C180.533 129.738 177.25 130.089 174.188 131.141C169.199 132.623 164.81 135.507 161.606 139.406C158.304 143.553 156.877 148.763 157.637 153.899C158.38 158.372 160.894 162.413 164.671 165.207L166.029 164.215Z" fill="#2F2E41"/>
<path d="M99.3031 203.888C100.182 194.961 102.61 186.23 106.489 178.045C107.571 175.767 108.761 173.539 110.06 171.362C110.127 171.248 110.144 171.114 110.107 170.989C110.07 170.863 109.983 170.756 109.864 170.69C109.745 170.625 109.603 170.605 109.469 170.637C109.335 170.668 109.22 170.748 109.147 170.858C104.423 178.789 101.114 187.399 99.3515 196.343C98.861 198.84 98.4925 201.355 98.2458 203.888C98.1832 204.527 99.2412 204.523 99.3031 203.888V203.888Z" fill="#3F3D56"/>
<path d="M112.622 172.961C116.321 172.961 119.32 170.133 119.32 166.645C119.32 163.156 116.321 160.328 112.622 160.328C108.922 160.328 105.924 163.156 105.924 166.645C105.924 170.133 108.922 172.961 112.622 172.961Z" fill="#365B6D"/>
<path d="M99.9882 204.056C100.559 198.264 102.134 192.6 104.651 187.29C105.352 185.812 106.124 184.367 106.967 182.954C107.006 182.881 107.014 182.796 106.989 182.717C106.964 182.638 106.909 182.571 106.833 182.529C106.758 182.487 106.668 182.474 106.583 182.493C106.498 182.511 106.424 182.559 106.375 182.627C103.31 187.773 101.163 193.358 100.019 199.161C99.7017 200.781 99.4626 202.413 99.3023 204.056C99.2617 204.47 99.9483 204.468 99.9882 204.056Z" fill="#3F3D56"/>
<path d="M108.629 183.992C111.029 183.992 112.975 182.157 112.975 179.894C112.975 177.631 111.029 175.796 108.629 175.796C106.229 175.796 104.283 177.631 104.283 179.894C104.283 182.157 106.229 183.992 108.629 183.992Z" fill="#365B6D"/>
<path d="M99.1222 203.669C95.7944 198.772 93.3422 193.392 91.8633 187.745C91.4526 186.173 91.1186 184.586 90.8615 182.983C90.8452 182.901 90.7963 182.829 90.7249 182.78C90.6535 182.732 90.5651 182.711 90.4779 182.722C90.3907 182.733 90.3113 182.775 90.2561 182.84C90.2009 182.905 90.1741 182.987 90.1813 183.07C91.121 188.904 93.0712 194.553 95.9538 199.791C96.7602 201.253 97.6361 202.679 98.5814 204.067C98.8198 204.417 99.3591 204.017 99.1222 203.669V203.669Z" fill="#3F3D56"/>
<path d="M90.1758 183.705C92.5759 183.705 94.5217 181.87 94.5217 179.607C94.5217 177.343 92.5759 175.509 90.1758 175.509C87.7756 175.509 85.8298 177.343 85.8298 179.607C85.8298 181.87 87.7756 183.705 90.1758 183.705Z" fill="#365B6D"/>
<path d="M85.7815 207.295V199.244C85.7824 198.443 86.1201 197.676 86.7203 197.11C87.3206 196.544 88.1344 196.225 88.9833 196.224H108.906C109.755 196.225 110.568 196.544 111.169 197.11C111.769 197.676 112.107 198.443 112.107 199.244V207.295C112.107 208.096 111.769 208.863 111.169 209.429C110.568 209.995 109.755 210.314 108.906 210.314H88.9833C88.1344 210.314 87.3206 209.995 86.7203 209.429C86.1201 208.863 85.7824 208.096 85.7815 207.295V207.295Z" fill="#CCCCCC"/>
<path d="M264.377 204.966H208.167C206.792 204.966 205.677 206.017 205.677 207.314C205.677 208.611 206.792 209.662 208.167 209.662H264.377C265.752 209.662 266.867 208.611 266.867 207.314C266.867 206.017 265.752 204.966 264.377 204.966Z" fill="#CCCCCC"/>
<path d="M302.087 209.662H238.763C237.536 209.661 236.361 209.201 235.494 208.384C234.627 207.566 234.139 206.457 234.138 205.301V172.424C234.139 171.268 234.627 170.159 235.494 169.342C236.361 168.524 237.536 168.064 238.763 168.063H302.087C303.313 168.064 304.489 168.524 305.356 169.342C306.223 170.159 306.711 171.268 306.712 172.424V205.301C306.711 206.457 306.223 207.566 305.356 208.384C304.489 209.201 303.313 209.661 302.087 209.662Z" fill="#CCCCCC"/>
<path d="M270.425 192.888C272.783 192.888 274.694 191.086 274.694 188.863C274.694 186.639 272.783 184.837 270.425 184.837C268.067 184.837 266.156 186.639 266.156 188.863C266.156 191.086 268.067 192.888 270.425 192.888Z" fill="white"/>
<path d="M463.245 253.946C463.245 248.758 442.539 244.552 416.996 244.552C391.454 244.552 370.748 248.758 370.748 253.946C370.748 257.27 379.261 260.19 392.093 261.859V313.325C392.093 314.482 392.581 315.591 393.448 316.409C394.315 317.227 395.492 317.687 396.718 317.687C397.945 317.687 399.121 317.227 399.989 316.409C400.856 315.591 401.343 314.482 401.343 313.325V262.786C406.233 263.143 411.501 263.339 416.996 263.339C422.491 263.339 427.76 263.143 432.65 262.786V313.325C432.65 314.482 433.137 315.591 434.004 316.409C434.872 317.227 436.048 317.687 437.275 317.687C438.501 317.687 439.677 317.227 440.545 316.409C441.412 315.591 441.899 314.482 441.899 313.325V261.859C454.732 260.19 463.245 257.27 463.245 253.946Z" fill="#CCCCCC"/>
<path d="M422.11 167.968C433.113 167.968 442.032 159.557 442.032 149.181C442.032 138.805 433.113 130.394 422.11 130.394C411.107 130.394 402.188 138.805 402.188 149.181C402.188 159.557 411.107 167.968 422.11 167.968Z" fill="#2F2E41"/>
<path d="M372.532 309.92H363.809L359.659 278.191H372.533L372.532 309.92V309.92Z" fill="#FFB8B8"/>
<path d="M357.578 307.569H374.401V317.557H346.987C346.987 314.908 348.103 312.368 350.089 310.495C352.075 308.622 354.769 307.57 357.578 307.569V307.569Z" fill="#2F2E41"/>
<path d="M358.915 305.329L350.592 302.866L356.706 271.421L368.989 275.056L358.915 305.329V305.329Z" fill="#FFB8B8"/>
<path d="M345.391 298.86L361.442 303.61L358.27 313.141L332.114 305.4C332.955 302.873 334.826 300.764 337.316 299.537C339.806 298.311 342.711 298.067 345.391 298.86Z" fill="#2F2E41"/>
<path d="M361.753 292.669C361.371 292.669 360.992 292.604 360.635 292.477L354.217 290.208C353.497 289.951 352.898 289.458 352.531 288.82C352.163 288.181 352.052 287.44 352.215 286.73C353.831 279.88 359.338 256.557 362.352 244.047C365.928 229.209 418.094 226.452 420.313 226.341L420.496 226.332L426.364 233.286C428.484 239.714 427.812 244.726 424.366 248.187C414.311 258.283 384.288 252.018 380.708 251.225L364.751 290.725C364.518 291.297 364.107 291.789 363.572 292.136C363.037 292.483 362.403 292.669 361.753 292.669V292.669Z" fill="#2F2E41"/>
<path d="M371.003 297.366C370.621 297.366 370.242 297.301 369.885 297.174L363.467 294.905C362.746 294.648 362.148 294.155 361.781 293.516C361.413 292.878 361.301 292.136 361.465 291.427C363.08 284.576 368.587 261.254 371.602 248.744C375.178 233.905 427.344 231.148 429.563 231.038L429.746 231.029L435.613 237.983C437.734 244.411 437.062 249.423 433.616 252.883C423.56 262.979 393.538 256.715 389.958 255.922L374.001 295.422C373.768 295.994 373.357 296.486 372.822 296.833C372.287 297.18 371.653 297.366 371.003 297.366V297.366Z" fill="#2F2E41"/>
<path d="M352.436 200.735C352.672 201.032 352.882 201.346 353.066 201.675L388.158 205.162L393.209 198.63L404.658 204.531L394.736 220.38L351.699 210.032C350.613 211.03 349.231 211.693 347.736 211.933C346.241 212.172 344.704 211.977 343.329 211.372C341.955 210.768 340.808 209.783 340.042 208.549C339.275 207.316 338.925 205.891 339.038 204.465C339.151 203.039 339.722 201.679 340.675 200.566C341.627 199.453 342.916 198.641 344.371 198.236C345.825 197.831 347.376 197.853 348.817 198.299C350.257 198.746 351.52 199.595 352.436 200.735V200.735Z" fill="#FFB8B8"/>
<path d="M433.985 240.645C433.477 240.643 432.977 240.528 432.526 240.308C425.51 236.944 411.845 231.116 399.175 229.897C398.741 229.857 398.321 229.732 397.942 229.53C397.563 229.327 397.232 229.053 396.972 228.723C396.707 228.39 396.518 228.009 396.416 227.604C396.314 227.199 396.301 226.778 396.379 226.368C397.522 220.399 400.145 205.201 399.807 193.02C399.708 189.275 400.963 185.609 403.365 182.626C405.768 179.642 409.176 177.518 413.028 176.604C415.348 176.026 417.704 175.588 420.082 175.292C422.815 174.965 425.591 175.247 428.189 176.114C430.786 176.981 433.131 178.41 435.038 180.286C436.944 182.162 438.358 184.433 439.166 186.917C439.974 189.401 440.154 192.029 439.691 194.59C437.431 207.213 435.153 224.843 437.133 237.151C437.224 237.702 437.151 238.267 436.923 238.782C436.694 239.297 436.319 239.742 435.839 240.068C435.301 240.441 434.652 240.642 433.985 240.645V240.645Z" fill="#365B6D"/>
<path d="M400.457 208.538C400.019 208.537 399.587 208.452 399.186 208.288L390.044 204.556C389.266 204.237 388.653 203.64 388.341 202.896C388.029 202.152 388.042 201.321 388.378 200.586L395.444 185.193C395.871 184.263 396.488 183.421 397.259 182.716C398.031 182.011 398.943 181.456 399.942 181.083C400.941 180.71 402.008 180.526 403.082 180.542C404.157 180.558 405.217 180.774 406.204 181.176C407.19 181.579 408.082 182.16 408.83 182.888C409.578 183.616 410.166 184.475 410.561 185.418C410.957 186.36 411.152 187.366 411.135 188.379C411.118 189.392 410.89 190.393 410.463 191.322L403.396 206.716C403.147 207.256 402.737 207.716 402.215 208.04C401.693 208.364 401.082 208.537 400.457 208.538H400.457Z" fill="#365B6D"/>
<path d="M421.382 170.056C431.034 170.056 438.858 162.678 438.858 153.576C438.858 144.475 431.034 137.097 421.382 137.097C411.731 137.097 403.907 144.475 403.907 153.576C403.907 162.678 411.731 170.056 421.382 170.056Z" fill="#FFB8B8"/>
<path d="M403.592 145.48C411.87 150.245 421.202 153.144 430.862 153.953L427.987 150.705C430.08 151.435 432.282 151.847 434.512 151.926C436.74 151.894 439.073 151.085 440.337 149.356C440.901 148.496 441.236 147.521 441.313 146.512C441.391 145.504 441.209 144.493 440.782 143.566C439.906 141.716 438.543 140.108 436.821 138.896C433.771 136.62 430.17 135.091 426.341 134.446C422.512 133.801 418.573 134.059 414.875 135.197C412.339 135.912 410.067 137.286 408.32 139.162C406.664 141.089 403.475 142.806 404.323 145.154L403.592 145.48Z" fill="#2F2E41"/>
<path d="M424.321 132.181C418.809 126.91 412.139 122.842 404.781 120.265C400.057 118.615 394.916 117.596 389.978 118.532C385.04 119.469 380.369 122.691 378.992 127.26C377.865 130.996 379.027 135.019 380.776 138.536C382.525 142.053 384.859 145.314 386.273 148.963C387.715 152.685 388.149 156.689 387.535 160.609C386.92 164.53 385.277 168.244 382.755 171.414C380.232 174.584 376.91 177.11 373.09 178.762C369.27 180.414 365.072 181.141 360.879 180.875C365.731 181.488 370.204 183.639 374.946 184.783C379.688 185.928 385.287 185.85 388.811 182.646C392.54 179.256 392.615 173.744 392.434 168.863L391.63 147.094C391.494 143.393 391.377 139.573 392.792 136.119C394.208 132.665 397.571 129.641 401.498 129.672C404.473 129.696 407.107 131.396 409.494 133.073C411.88 134.749 414.407 136.538 417.371 136.788C420.335 137.037 423.72 134.968 423.498 132.169" fill="#2F2E41"/>
<path d="M343.09 188.598L383.328 189.493L389.157 230.057L351.997 230.843L343.09 188.598Z" fill="#E6E6E6"/>
<path d="M385.877 199.393C386.113 199.69 386.323 200.004 386.507 200.333L421.599 203.82L426.65 197.289L438.099 203.189L428.177 219.038L385.14 208.69C384.054 209.688 382.672 210.351 381.177 210.591C379.682 210.83 378.145 210.635 376.77 210.03C375.396 209.426 374.249 208.441 373.483 207.208C372.716 205.974 372.366 204.549 372.479 203.123C372.592 201.697 373.163 200.337 374.116 199.224C375.068 198.111 376.357 197.299 377.812 196.894C379.266 196.489 380.817 196.511 382.258 196.957C383.698 197.404 384.961 198.253 385.877 199.393V199.393Z" fill="#FFB8B8"/>
<path d="M433.898 209.209C433.461 209.208 433.028 209.123 432.627 208.959L423.486 205.227C422.707 204.908 422.095 204.311 421.782 203.567C421.47 202.823 421.483 201.992 421.819 201.257L428.885 185.863C429.312 184.934 429.929 184.092 430.701 183.387C431.472 182.682 432.384 182.127 433.383 181.754C434.382 181.381 435.449 181.197 436.524 181.213C437.598 181.229 438.659 181.445 439.645 181.847C440.631 182.25 441.523 182.831 442.271 183.559C443.019 184.287 443.607 185.146 444.003 186.088C444.398 187.031 444.593 188.037 444.576 189.05C444.559 190.063 444.331 191.063 443.904 191.993L436.837 207.386C436.589 207.927 436.178 208.387 435.656 208.711C435.134 209.035 434.523 209.208 433.899 209.209H433.898Z" fill="#365B6D"/>
<path d="M351.182 208.991H67.9993C66.7728 208.991 65.5964 209.451 64.7291 210.269C63.8618 211.087 63.3745 212.196 63.3745 213.353C63.3745 214.509 63.8618 215.619 64.7291 216.437C65.5964 217.254 66.7728 217.714 67.9993 217.714H76.1817V312.655C76.1817 313.811 76.669 314.92 77.5363 315.738C78.4037 316.556 79.58 317.016 80.8066 317.016C82.0332 317.016 83.2095 316.556 84.0768 315.738C84.9442 314.92 85.4314 313.811 85.4314 312.655V226.094L137.28 314.713C137.584 315.209 137.988 315.644 138.47 315.992C138.952 316.341 139.502 316.597 140.088 316.745C140.675 316.893 141.287 316.931 141.889 316.857C142.491 316.782 143.072 316.596 143.598 316.31C144.124 316.023 144.585 315.642 144.955 315.188C145.325 314.733 145.596 314.215 145.753 313.661C145.91 313.108 145.95 312.531 145.871 311.963C145.792 311.395 145.595 310.848 145.291 310.352L91.0908 217.714H338.73V217.77L284.563 310.352C284.255 310.848 284.054 311.397 283.971 311.967C283.888 312.536 283.926 313.116 284.082 313.672C284.238 314.228 284.509 314.75 284.879 315.207C285.25 315.663 285.712 316.047 286.241 316.334C286.769 316.622 287.352 316.808 287.957 316.882C288.562 316.956 289.176 316.917 289.765 316.766C290.353 316.616 290.905 316.357 291.387 316.004C291.869 315.652 292.272 315.213 292.574 314.713L338.73 235.823V312.655C338.73 313.811 339.217 314.92 340.085 315.738C340.952 316.556 342.128 317.016 343.355 317.016C344.582 317.016 345.758 316.556 346.625 315.738C347.493 314.92 347.98 313.811 347.98 312.655V220.013L349.325 217.714H351.182C352.409 217.714 353.585 217.254 354.453 216.437C355.32 215.619 355.807 214.509 355.807 213.353C355.807 212.196 355.32 211.087 354.453 210.269C353.585 209.451 352.409 208.991 351.182 208.991H351.182Z" fill="#3F3D56"/>
<path d="M526.153 317.999H0.847538C0.622885 317.999 0.407432 317.915 0.248578 317.765C0.0897238 317.616 0.000488281 317.412 0.000488281 317.201C0.000488281 316.989 0.0897238 316.786 0.248578 316.636C0.407432 316.486 0.622885 316.402 0.847538 316.402H526.153C526.378 316.402 526.594 316.486 526.752 316.636C526.911 316.786 527.001 316.989 527.001 317.201C527.001 317.412 526.911 317.616 526.752 317.765C526.594 317.915 526.378 317.999 526.153 317.999V317.999Z" fill="#3F3D56"/>
</g>
<defs>
<clipPath id="clip0_82_81">
<rect width="527" height="318" fill="white"/>
</clipPath>
</defs>
</svg>
